<svg width="25" height="25" viewBox="0 0 25 25" fill="none" xmlns="http://www.w3.org/2000/svg">
<path fill-rule="evenodd" clip-rule="evenodd" d="M10.2541 3.64642C6.60481 3.64642 3.64645 6.60479 3.64645 10.2541C3.64645 13.9034 6.60481 16.8618 10.2541 16.8618C13.9035 16.8618 16.8618 13.9034 16.8618 10.2541C16.8618 6.60479 13.9035 3.64642 10.2541 3.64642ZM1.64645 10.2541C1.64645 5.50022 5.50024 1.64642 10.2541 1.64642C15.008 1.64642 18.8618 5.50022 18.8618 10.2541C18.8618 12.2708 18.1683 14.1254 17.0068 15.5927L23.3536 21.9394L21.9393 23.3536L15.5926 17.0069C14.1254 18.1683 12.2707 18.8618 10.2541 18.8618C5.50024 18.8618 1.64645 15.008 1.64645 10.2541Z" fill="#333333"/>
</svg>
