<svg width="25" height="25" viewBox="0 0 25 25" fill="none" xmlns="http://www.w3.org/2000/svg">
<path fill-rule="evenodd" clip-rule="evenodd" d="M3.95283 4.5C3.95283 2.84315 5.29598 1.5 6.95283 1.5H18.0472C19.704 1.5 21.0472 2.84314 21.0472 4.5V20.5C21.0472 22.1569 19.704 23.5 18.0472 23.5H6.95283C5.29598 23.5 3.95283 22.1569 3.95283 20.5V4.5ZM6.95283 3.5C6.40055 3.5 5.95283 3.94772 5.95283 4.5V20.5C5.95283 21.0523 6.40055 21.5 6.95283 21.5H18.0472C18.5995 21.5 19.0472 21.0523 19.0472 20.5V4.5C19.0472 3.94772 18.5995 3.5 18.0472 3.5H6.95283ZM13.045 7.33611L17.5018 11.7929V13.2071L13.045 17.6639L11.6308 16.2497L14.3805 13.5H8.20527V11.5H14.3805L11.6308 8.75032L13.045 7.33611Z" fill="#333333"/>
</svg>
