<svg width="25" height="25" viewBox="0 0 25 25" fill="none" xmlns="http://www.w3.org/2000/svg">
<path fill-rule="evenodd" clip-rule="evenodd" d="M3.52831 4.5C3.52831 2.84315 4.87146 1.5 6.52831 1.5H13.8491C15.5059 1.5 16.8491 2.84315 16.8491 4.5V6.49998H18.4717C20.1285 6.49998 21.4717 7.84313 21.4717 9.49998V20.5C21.4717 22.1568 20.1285 23.5 18.4717 23.5H11.1509C9.49409 23.5 8.15095 22.1568 8.15095 20.5V18.5H6.52831C4.87146 18.5 3.52831 17.1568 3.52831 15.5V4.5ZM10.1509 18.5V20.5C10.1509 21.0522 10.5987 21.5 11.1509 21.5H18.4717C19.024 21.5 19.4717 21.0522 19.4717 20.5V9.49998C19.4717 8.9477 19.024 8.49998 18.4717 8.49998H16.8491V15.5C16.8491 17.1568 15.5059 18.5 13.8491 18.5H10.1509ZM6.52831 3.5C5.97603 3.5 5.52831 3.94772 5.52831 4.5V15.5C5.52831 16.0523 5.97603 16.5 6.52831 16.5H13.8491C14.4013 16.5 14.8491 16.0523 14.8491 15.5V4.5C14.8491 3.94772 14.4013 3.5 13.8491 3.5H6.52831Z" fill="#333333"/>
</svg>
