<svg width="25" height="25" viewBox="0 0 25 25" fill="none" xmlns="http://www.w3.org/2000/svg">
<path fill-rule="evenodd" clip-rule="evenodd" d="M1.63957 7.73489C1.63957 6.07804 2.98272 4.73489 4.63957 4.73489H20.3604C22.0173 4.73489 23.3604 6.07804 23.3604 7.73489V17.2651C23.3604 18.9219 22.0173 20.2651 20.3604 20.2651H4.63958C2.98272 20.2651 1.63957 18.9219 1.63957 17.2651V7.73489ZM4.63957 6.73489C4.08729 6.73489 3.63957 7.18261 3.63957 7.73489V8.48394H21.3604V7.73489C21.3604 7.18261 20.9127 6.73489 20.3604 6.73489H4.63957ZM21.3604 10.4839H10.0399V18.2651H20.3604C20.9127 18.2651 21.3604 17.8174 21.3604 17.2651V10.4839ZM8.03986 18.2651V10.4839H3.63957V17.2651C3.63957 17.8174 4.08729 18.2651 4.63958 18.2651H8.03986Z" fill="#333333"/>
</svg>
